<?xml version="1.0" encoding="UTF-8" standalone="no"?>
<!DOCTYPE svg PUBLIC "-//W3C//DTD SVG 1.1//EN" "http://www.w3.org/Graphics/SVG/1.1/DTD/svg11.dtd">
<svg width="300" height="127" viewBox="0 0 752 318" version="1.1" xmlns="http://www.w3.org/2000/svg" xmlns:xlink="http://www.w3.org/1999/xlink" xml:space="preserve" xmlns:serif="http://www.serif.com/" style="fill-rule:evenodd;clip-rule:evenodd;">
    <g transform="matrix(1,0,0,1,-76.095122,-1426.824222)">
        <g>
            <g transform="matrix(3.176432,0,0,-3.176432,76.190936,1744.56327)">
                <path d="M94,50C94,48.559 93.929,47.121 93.788,45.687C93.647,44.253 93.436,42.829 93.155,41.416C92.873,40.003 92.524,38.606 92.105,37.227C91.687,35.848 91.202,34.493 90.651,33.162C90.099,31.831 89.484,30.529 88.805,29.259C88.125,27.988 87.385,26.753 86.585,25.555C85.784,24.357 84.927,23.201 84.012,22.087C83.098,20.973 82.132,19.906 81.113,18.887C80.094,17.868 79.027,16.902 77.913,15.988C76.799,15.073 75.643,14.216 74.445,13.415C73.247,12.615 72.012,11.875 70.741,11.195C69.471,10.516 68.169,9.901 66.838,9.349C65.507,8.798 64.152,8.313 62.773,7.895C61.394,7.476 59.997,7.127 58.584,6.845C57.171,6.564 55.747,6.353 54.313,6.212C52.879,6.071 51.441,6 50,6C48.559,6 47.121,6.071 45.687,6.212C44.253,6.353 42.829,6.564 41.416,6.845C40.003,7.127 38.606,7.476 37.227,7.895C35.848,8.313 34.493,8.798 33.162,9.349C31.831,9.901 30.529,10.516 29.259,11.195C27.988,11.875 26.753,12.615 25.555,13.415C24.357,14.216 23.201,15.073 22.087,15.988C20.973,16.902 19.906,17.868 18.887,18.887C17.868,19.906 16.902,20.973 15.988,22.087C15.073,23.201 14.216,24.357 13.415,25.555C12.615,26.753 11.875,27.988 11.195,29.259C10.516,30.529 9.901,31.831 9.349,33.162C8.798,34.493 8.313,35.848 7.895,37.227C7.476,38.606 7.127,40.003 6.845,41.416C6.564,42.829 6.353,44.253 6.212,45.687C6.071,47.121 6,48.559 6,50C6,51.441 6.071,52.879 6.212,54.313C6.353,55.747 6.564,57.171 6.845,58.584C7.127,59.997 7.476,61.394 7.895,62.773C8.313,64.152 8.798,65.507 9.349,66.838C9.901,68.169 10.516,69.471 11.195,70.741C11.875,72.012 12.615,73.247 13.415,74.445C14.216,75.643 15.073,76.799 15.988,77.913C16.902,79.027 17.868,80.094 18.887,81.113C19.906,82.132 20.973,83.098 22.087,84.012C23.201,84.927 24.357,85.784 25.555,86.585C26.753,87.385 27.988,88.125 29.259,88.805C30.529,89.484 31.831,90.099 33.162,90.651C34.493,91.202 35.848,91.687 37.227,92.105C38.606,92.524 40.003,92.873 41.416,93.155C42.829,93.436 44.253,93.647 45.687,93.788C47.121,93.929 48.559,94 50,94C51.441,94 52.879,93.929 54.313,93.788C55.747,93.647 57.171,93.436 58.584,93.155C59.997,92.873 61.394,92.524 62.773,92.105C64.152,91.687 65.507,91.202 66.838,90.651C68.169,90.099 69.471,89.484 70.741,88.805C72.012,88.125 73.247,87.385 74.445,86.585C75.643,85.784 76.799,84.927 77.913,84.012C79.027,83.098 80.094,82.132 81.113,81.113C82.132,80.094 83.098,79.027 84.012,77.913C84.927,76.799 85.784,75.643 86.585,74.445C87.385,73.247 88.125,72.012 88.805,70.741C89.484,69.471 90.099,68.169 90.651,66.838C91.202,65.507 91.687,64.152 92.105,62.773C92.524,61.394 92.873,59.997 93.155,58.584C93.436,57.171 93.647,55.747 93.788,54.313C93.929,52.879 94,51.441 94,50Z" style="fill:none;fill-rule:nonzero;stroke:url(#_Linear1);stroke-width:2.93px;"/>
            </g>
            <g transform="matrix(1,0,0,1,-3,1361.577868)">
                <path d="M274.559,120.572C276.839,119.112 281.58,114.18 284.401,121.519C284.419,122.138 285.591,125.096 279.426,133.442C276.136,137.895 256.831,164.028 237.419,188.438C237.072,188.892 237.029,188.838 233.013,194.072C222.175,207.191 218.921,212.617 225.406,215.794C231.599,218.828 293.194,211.187 295.536,210.979C299.739,210.753 299.797,210.637 303.562,212.439C305.255,215.744 305.446,215.886 304.129,219.273C302.076,221.709 302.155,221.694 300.003,224.01C298.365,225.713 296.728,227.417 295.09,229.12C294.9,229.313 285.913,238.296 285.115,239.093C272.192,251.979 272.144,251.901 271.046,253.044C259.969,263.495 260.272,263.711 249.232,274.209C243.676,279.637 243.72,279.565 239.094,284.054C232.512,290.002 232.603,289.968 226.129,296.105L224.085,298.047C220.64,301.136 220.729,301.075 217.259,304.223C216.684,304.77 211.113,310.064 210.067,311.043C207.417,313.41 202.759,317.494 202.122,318.053C201.212,318.82 199.76,320.046 191.212,328.163C190.267,328.865 189.323,329.566 188.378,330.267C186.411,330.85 186.451,330.8 184.467,330.579C183.86,330.179 183.254,329.779 182.648,329.379C181.596,326.767 181.198,326.306 189.021,313.196C223.738,255.022 227.326,254.289 223.665,250.232C219.147,249.473 219.198,249.915 214.488,250.012C211.487,250.064 208.487,250.117 205.487,250.169L200.511,250.199C191.834,250.097 191.862,250.049 183.541,247.419C178.792,244.324 178.69,244.541 174.895,240.213C171.552,234.532 172.169,234.352 171.565,231.486C170.799,226.964 170.945,226.996 171.467,222.494C172.583,215.757 172.896,215.538 177.893,207.787C180.966,204.18 180.915,204.184 189.836,195.873L192.503,193.503C194.607,191.62 196.711,189.737 198.815,187.853L202.473,184.47C207.187,180.169 207.126,180.215 211.809,175.851C212.714,175.077 213.619,174.302 214.523,173.527C216.608,171.622 218.692,169.717 220.776,167.812C223.136,165.609 223.128,165.694 225.491,163.491C227.598,161.612 229.705,159.733 231.812,157.855L234.488,155.486L238.724,151.764C240.638,149.997 242.552,148.23 244.466,146.464C247.159,144.16 249.851,141.857 252.544,139.554C254.637,137.666 256.731,135.778 258.824,133.89C259.727,133.105 260.629,132.32 261.532,131.536C263.652,129.688 265.773,127.841 267.894,125.994C271.333,123.348 271.201,123.324 274.559,120.572Z" style="fill:rgb(20,48,64);"/>
            </g>
            <g transform="matrix(1.822756,0,0,1.966671,-483.734302,-251.298644)">
                <g transform="matrix(62.5,0,0,62.5,510.257926,933.752343)">
                    <path d="M0.252,-0.454C0.29,-0.454 0.322,-0.446 0.348,-0.43C0.374,-0.414 0.395,-0.391 0.41,-0.36C0.424,-0.329 0.433,-0.292 0.436,-0.247L0.113,-0.247L0.113,-0.29L0.376,-0.3L0.334,-0.278C0.333,-0.306 0.328,-0.329 0.321,-0.348C0.314,-0.367 0.304,-0.381 0.292,-0.391C0.279,-0.401 0.263,-0.406 0.244,-0.406C0.222,-0.406 0.203,-0.4 0.186,-0.388C0.17,-0.377 0.157,-0.359 0.148,-0.335C0.139,-0.311 0.134,-0.281 0.134,-0.244C0.134,-0.206 0.141,-0.174 0.155,-0.147C0.169,-0.12 0.188,-0.1 0.214,-0.086C0.24,-0.072 0.27,-0.065 0.305,-0.065C0.32,-0.065 0.334,-0.067 0.348,-0.07C0.361,-0.073 0.374,-0.078 0.387,-0.084C0.4,-0.09 0.413,-0.097 0.426,-0.106L0.437,-0.082C0.419,-0.062 0.399,-0.045 0.38,-0.031C0.36,-0.017 0.34,-0.007 0.319,0C0.298,0.007 0.276,0.011 0.253,0.011C0.211,0.011 0.173,0.001 0.141,-0.018C0.108,-0.037 0.083,-0.064 0.065,-0.098C0.046,-0.132 0.037,-0.171 0.037,-0.215C0.037,-0.26 0.046,-0.3 0.063,-0.336C0.08,-0.372 0.105,-0.401 0.137,-0.422C0.169,-0.443 0.207,-0.454 0.252,-0.454Z" style="fill-rule:nonzero;"/>
                </g>
                <g transform="matrix(62.5,0,0,62.5,539.707701,933.752343)">
                    <path d="M0.467,-0.646L0.393,-0.662L0.452,-0.709L0.472,-0.709L0.5,-0.479L0.465,-0.475L0.381,-0.629L0.406,-0.599C0.388,-0.611 0.369,-0.621 0.35,-0.626C0.331,-0.632 0.31,-0.634 0.288,-0.634C0.245,-0.634 0.211,-0.625 0.188,-0.607C0.165,-0.589 0.154,-0.564 0.154,-0.532C0.154,-0.511 0.158,-0.493 0.168,-0.479C0.177,-0.465 0.19,-0.453 0.206,-0.443C0.223,-0.434 0.241,-0.425 0.262,-0.418C0.283,-0.411 0.305,-0.404 0.328,-0.396C0.351,-0.389 0.374,-0.38 0.396,-0.371C0.419,-0.362 0.44,-0.35 0.459,-0.336C0.478,-0.321 0.494,-0.303 0.505,-0.281C0.517,-0.258 0.522,-0.231 0.522,-0.198C0.522,-0.152 0.511,-0.113 0.489,-0.082C0.467,-0.052 0.437,-0.028 0.398,-0.013C0.359,0.003 0.314,0.011 0.262,0.011C0.228,0.011 0.197,0.009 0.169,0.005C0.142,0 0.114,-0.007 0.084,-0.018L0.044,-0.202L0.082,-0.202L0.204,-0.02L0.107,-0.084C0.134,-0.07 0.158,-0.06 0.179,-0.054C0.201,-0.048 0.225,-0.045 0.251,-0.045C0.289,-0.045 0.32,-0.049 0.346,-0.058C0.372,-0.066 0.391,-0.08 0.404,-0.098C0.417,-0.116 0.424,-0.138 0.424,-0.166C0.424,-0.19 0.418,-0.21 0.407,-0.226C0.395,-0.242 0.38,-0.255 0.361,-0.265C0.342,-0.275 0.321,-0.284 0.298,-0.291C0.275,-0.299 0.252,-0.306 0.23,-0.314C0.207,-0.321 0.186,-0.33 0.166,-0.34C0.146,-0.349 0.128,-0.361 0.112,-0.375C0.097,-0.389 0.084,-0.406 0.075,-0.426C0.066,-0.446 0.062,-0.471 0.062,-0.5C0.062,-0.539 0.071,-0.572 0.09,-0.6C0.109,-0.628 0.136,-0.65 0.172,-0.665C0.207,-0.68 0.249,-0.687 0.297,-0.687C0.329,-0.687 0.358,-0.684 0.385,-0.678C0.412,-0.671 0.439,-0.661 0.467,-0.646Z" style="fill-rule:nonzero;"/>
                </g>
                <g transform="matrix(62.5,0,0,62.5,575.327031,933.752343)">
                    <path d="M0.183,-0.131C0.183,-0.109 0.19,-0.092 0.204,-0.081C0.218,-0.07 0.238,-0.065 0.264,-0.065C0.277,-0.065 0.29,-0.066 0.305,-0.068C0.32,-0.071 0.336,-0.075 0.353,-0.08L0.353,-0.05C0.33,-0.035 0.311,-0.023 0.294,-0.014C0.277,-0.005 0.261,0.001 0.247,0.004C0.234,0.008 0.22,0.01 0.208,0.01C0.183,0.01 0.162,0.005 0.143,-0.003C0.125,-0.012 0.11,-0.025 0.1,-0.042C0.089,-0.06 0.084,-0.081 0.084,-0.108L0.084,-0.366L0.02,-0.407L0.02,-0.424C0.029,-0.43 0.039,-0.435 0.048,-0.441C0.058,-0.447 0.067,-0.454 0.077,-0.46C0.086,-0.467 0.095,-0.473 0.105,-0.48C0.114,-0.487 0.123,-0.494 0.132,-0.501C0.141,-0.508 0.149,-0.515 0.158,-0.523L0.183,-0.523L0.183,-0.131ZM0.144,-0.385L0.144,-0.443L0.338,-0.443L0.331,-0.385L0.144,-0.385Z" style="fill-rule:nonzero;"/>
                </g>
                <g transform="matrix(62.5,0,0,62.5,597.458567,933.752343)">
                    <path d="M0.268,-0.039C0.293,-0.039 0.314,-0.045 0.332,-0.056C0.351,-0.068 0.365,-0.086 0.375,-0.111C0.386,-0.136 0.391,-0.168 0.391,-0.207C0.391,-0.25 0.386,-0.286 0.376,-0.316C0.366,-0.345 0.352,-0.367 0.333,-0.382C0.315,-0.397 0.292,-0.404 0.266,-0.404C0.242,-0.404 0.221,-0.398 0.202,-0.387C0.184,-0.375 0.17,-0.357 0.159,-0.332C0.149,-0.307 0.144,-0.275 0.144,-0.236C0.144,-0.193 0.149,-0.157 0.159,-0.128C0.169,-0.098 0.183,-0.076 0.201,-0.061C0.22,-0.046 0.242,-0.039 0.268,-0.039ZM0.265,0.011C0.219,0.011 0.179,0.001 0.145,-0.018C0.11,-0.037 0.084,-0.064 0.065,-0.098C0.047,-0.132 0.037,-0.172 0.037,-0.217C0.037,-0.263 0.047,-0.304 0.067,-0.34C0.087,-0.376 0.114,-0.404 0.149,-0.424C0.184,-0.444 0.224,-0.454 0.27,-0.454C0.316,-0.454 0.356,-0.444 0.39,-0.425C0.424,-0.406 0.451,-0.38 0.469,-0.345C0.488,-0.311 0.497,-0.272 0.497,-0.226C0.497,-0.18 0.487,-0.139 0.468,-0.103C0.448,-0.067 0.42,-0.039 0.385,-0.019C0.35,0.001 0.31,0.011 0.265,0.011Z" style="fill-rule:nonzero;"/>
                </g>
                <g transform="matrix(62.5,0,0,62.5,630.863181,933.752343)">
                    <path d="M0.347,-0.451C0.366,-0.451 0.379,-0.446 0.388,-0.436C0.396,-0.427 0.401,-0.415 0.401,-0.4C0.401,-0.381 0.395,-0.367 0.385,-0.356C0.375,-0.346 0.362,-0.341 0.346,-0.341C0.336,-0.341 0.326,-0.342 0.316,-0.345C0.307,-0.347 0.297,-0.349 0.288,-0.352C0.278,-0.354 0.268,-0.355 0.257,-0.355C0.249,-0.355 0.241,-0.354 0.232,-0.353C0.224,-0.351 0.215,-0.348 0.207,-0.344C0.199,-0.34 0.191,-0.336 0.184,-0.33L0.172,-0.351C0.193,-0.369 0.212,-0.384 0.229,-0.397C0.246,-0.409 0.261,-0.42 0.275,-0.428C0.29,-0.435 0.302,-0.441 0.314,-0.445C0.326,-0.449 0.337,-0.451 0.347,-0.451ZM0.2,-0.357L0.2,-0.049L0.278,-0.024L0.278,-0L0.028,-0L0.028,-0.024L0.101,-0.048L0.101,-0.341C0.097,-0.346 0.091,-0.351 0.084,-0.355C0.076,-0.36 0.068,-0.364 0.059,-0.369C0.049,-0.374 0.039,-0.378 0.027,-0.383L0.027,-0.399L0.174,-0.454L0.188,-0.454L0.2,-0.357Z" style="fill-rule:nonzero;"/>
                </g>
                <g transform="matrix(62.5,0,0,62.5,656.73738,933.752343)">
                    <path d="M0.323,-0.079L0.268,0.031L0.067,-0.392L0.003,-0.417L0.003,-0.443L0.24,-0.443L0.24,-0.416L0.175,-0.396L0.323,-0.079ZM0.122,0.259C0.101,0.259 0.084,0.254 0.071,0.243C0.058,0.232 0.052,0.217 0.052,0.199C0.052,0.189 0.054,0.18 0.058,0.173C0.061,0.166 0.066,0.16 0.072,0.156C0.078,0.152 0.084,0.15 0.09,0.15C0.097,0.15 0.103,0.151 0.11,0.154C0.117,0.156 0.124,0.159 0.132,0.162C0.14,0.165 0.148,0.166 0.157,0.166C0.167,0.166 0.176,0.164 0.184,0.16C0.192,0.156 0.199,0.15 0.207,0.14C0.214,0.13 0.221,0.117 0.229,0.099L0.281,-0.025L0.303,-0.081L0.42,-0.398L0.357,-0.416L0.357,-0.443L0.53,-0.443L0.53,-0.416L0.477,-0.398L0.277,0.102C0.261,0.143 0.245,0.175 0.23,0.197C0.215,0.22 0.199,0.236 0.181,0.245C0.164,0.255 0.144,0.259 0.122,0.259Z" style="fill-rule:nonzero;"/>
                </g>
                <g transform="matrix(62.5,0,0,62.5,689.384818,933.752343)">
                    <path d="M0.322,-0.281L0.324,-0.238C0.286,-0.23 0.255,-0.222 0.231,-0.214C0.206,-0.206 0.188,-0.197 0.175,-0.188C0.162,-0.179 0.153,-0.17 0.148,-0.16C0.143,-0.149 0.14,-0.138 0.14,-0.125C0.14,-0.103 0.146,-0.086 0.159,-0.075C0.171,-0.063 0.187,-0.058 0.207,-0.058C0.223,-0.058 0.237,-0.061 0.249,-0.069C0.262,-0.076 0.271,-0.086 0.279,-0.098C0.286,-0.109 0.29,-0.123 0.29,-0.137L0.29,-0.32C0.29,-0.345 0.284,-0.364 0.271,-0.378C0.259,-0.392 0.238,-0.399 0.209,-0.399C0.197,-0.399 0.185,-0.398 0.172,-0.396C0.159,-0.393 0.147,-0.389 0.135,-0.384L0.161,-0.412C0.159,-0.4 0.157,-0.388 0.155,-0.378C0.153,-0.368 0.15,-0.359 0.147,-0.351C0.145,-0.344 0.142,-0.338 0.138,-0.333C0.132,-0.326 0.125,-0.32 0.117,-0.317C0.108,-0.314 0.098,-0.312 0.088,-0.312C0.075,-0.312 0.064,-0.315 0.057,-0.321C0.05,-0.326 0.046,-0.334 0.046,-0.342C0.046,-0.354 0.052,-0.366 0.063,-0.379C0.074,-0.391 0.089,-0.403 0.108,-0.414C0.127,-0.425 0.149,-0.434 0.173,-0.441C0.197,-0.448 0.222,-0.451 0.248,-0.451C0.283,-0.451 0.31,-0.446 0.331,-0.436C0.352,-0.425 0.367,-0.411 0.376,-0.391C0.385,-0.372 0.389,-0.349 0.389,-0.322L0.389,-0.096C0.389,-0.086 0.391,-0.077 0.394,-0.071C0.397,-0.064 0.401,-0.059 0.407,-0.056C0.413,-0.053 0.42,-0.051 0.429,-0.051C0.436,-0.051 0.444,-0.052 0.452,-0.055C0.46,-0.057 0.469,-0.061 0.477,-0.065L0.477,-0.035C0.462,-0.02 0.446,-0.009 0.428,-0.001C0.411,0.006 0.395,0.01 0.38,0.01C0.361,0.01 0.345,0.006 0.332,-0.002C0.319,-0.01 0.309,-0.022 0.303,-0.037C0.296,-0.053 0.293,-0.071 0.292,-0.093L0.296,-0.097C0.291,-0.074 0.282,-0.055 0.27,-0.039C0.257,-0.023 0.242,-0.011 0.224,-0.002C0.206,0.007 0.187,0.011 0.165,0.011C0.128,0.011 0.098,0.001 0.075,-0.019C0.052,-0.038 0.04,-0.067 0.04,-0.105C0.04,-0.124 0.044,-0.142 0.052,-0.158C0.06,-0.175 0.074,-0.19 0.095,-0.203C0.115,-0.217 0.144,-0.231 0.181,-0.243C0.217,-0.256 0.265,-0.269 0.322,-0.281Z" style="fill-rule:nonzero;"/>
                </g>
                <g transform="matrix(62.5,0,0,62.5,719.0949,933.752343)">
                </g>
            </g>
            <g transform="matrix(0.741041,0,0,0.741041,31.638009,801.01484)">
                <g transform="matrix(50,0,0,50,562.78746,1157.513775)">
                    <path d="M0.422,0.018C0.355,0.018 0.299,0.007 0.252,-0.017C0.205,-0.04 0.167,-0.07 0.138,-0.108C0.109,-0.145 0.088,-0.186 0.074,-0.229C0.06,-0.273 0.054,-0.315 0.054,-0.356L0.054,-0.378C0.054,-0.422 0.061,-0.466 0.074,-0.51C0.088,-0.554 0.11,-0.595 0.139,-0.631C0.168,-0.666 0.205,-0.695 0.251,-0.717C0.297,-0.739 0.352,-0.75 0.416,-0.75C0.482,-0.75 0.538,-0.739 0.585,-0.716C0.633,-0.693 0.67,-0.661 0.698,-0.62C0.726,-0.578 0.743,-0.53 0.749,-0.474L0.638,-0.474C0.633,-0.513 0.62,-0.546 0.599,-0.572C0.579,-0.598 0.553,-0.617 0.521,-0.63C0.49,-0.643 0.455,-0.65 0.416,-0.65C0.375,-0.65 0.338,-0.643 0.307,-0.628C0.275,-0.614 0.249,-0.594 0.228,-0.568C0.207,-0.542 0.191,-0.512 0.181,-0.478C0.17,-0.443 0.165,-0.406 0.165,-0.366C0.165,-0.328 0.17,-0.291 0.181,-0.257C0.191,-0.223 0.208,-0.193 0.229,-0.166C0.251,-0.14 0.278,-0.12 0.31,-0.105C0.342,-0.09 0.379,-0.082 0.422,-0.082C0.483,-0.082 0.534,-0.097 0.575,-0.128C0.616,-0.158 0.642,-0.201 0.651,-0.258L0.761,-0.258C0.755,-0.207 0.738,-0.161 0.71,-0.119C0.683,-0.078 0.645,-0.044 0.597,-0.019C0.549,0.006 0.49,0.018 0.422,0.018Z" style="fill:rgb(124,195,74);fill-rule:nonzero;"/>
                </g>
                <g transform="matrix(50,0,0,50,638.23121,1157.513775)">
                    <path d="M0.102,-0L0.102,-0.73L0.211,-0.73L0.211,-0L0.102,-0ZM0.191,-0L0.191,-0.097L0.52,-0.097L0.52,-0L0.191,-0Z" style="fill:rgb(124,195,74);fill-rule:nonzero;"/>
                </g>
                <g transform="matrix(50,0,0,50,701.74371,1157.513775)">
                    <path d="M0.026,-0L0.285,-0.73L0.467,-0.73L0.735,-0L0.622,-0L0.385,-0.658L0.433,-0.634L0.313,-0.634L0.365,-0.658L0.135,-0L0.026,-0ZM0.187,-0.212L0.223,-0.308L0.533,-0.308L0.569,-0.212L0.187,-0.212Z" style="fill:rgb(124,195,74);fill-rule:nonzero;"/>
                </g>
                <g transform="matrix(50,0,0,50,775.10621,1157.513775)">
                    <path d="M0.342,0.018C0.28,0.018 0.228,0.008 0.185,-0.012C0.142,-0.032 0.109,-0.06 0.086,-0.096C0.063,-0.131 0.052,-0.171 0.052,-0.216L0.16,-0.216C0.16,-0.195 0.166,-0.174 0.177,-0.153C0.189,-0.132 0.208,-0.114 0.234,-0.101C0.261,-0.087 0.297,-0.08 0.342,-0.08C0.384,-0.08 0.418,-0.086 0.445,-0.098C0.471,-0.11 0.491,-0.126 0.504,-0.146C0.517,-0.166 0.523,-0.188 0.523,-0.211C0.523,-0.24 0.511,-0.264 0.486,-0.283C0.461,-0.302 0.424,-0.313 0.375,-0.318L0.298,-0.324C0.232,-0.33 0.179,-0.35 0.14,-0.386C0.101,-0.421 0.081,-0.468 0.081,-0.526C0.081,-0.571 0.092,-0.61 0.114,-0.643C0.135,-0.677 0.166,-0.703 0.205,-0.722C0.243,-0.741 0.289,-0.75 0.341,-0.75C0.392,-0.75 0.438,-0.741 0.477,-0.722C0.516,-0.703 0.546,-0.677 0.568,-0.643C0.59,-0.609 0.601,-0.568 0.601,-0.521L0.492,-0.521C0.492,-0.544 0.487,-0.565 0.476,-0.585C0.466,-0.604 0.449,-0.621 0.427,-0.633C0.405,-0.646 0.376,-0.652 0.341,-0.652C0.307,-0.652 0.278,-0.646 0.256,-0.634C0.234,-0.623 0.217,-0.607 0.206,-0.588C0.195,-0.569 0.189,-0.548 0.189,-0.526C0.189,-0.5 0.199,-0.477 0.219,-0.458C0.238,-0.438 0.268,-0.426 0.307,-0.423L0.384,-0.416C0.435,-0.412 0.479,-0.402 0.516,-0.385C0.553,-0.367 0.581,-0.344 0.601,-0.315C0.622,-0.286 0.632,-0.252 0.632,-0.211C0.632,-0.167 0.62,-0.127 0.596,-0.092C0.572,-0.057 0.538,-0.03 0.494,-0.011C0.451,0.009 0.4,0.018 0.342,0.018Z" style="fill:rgb(124,195,74);fill-rule:nonzero;"/>
                </g>
                <g transform="matrix(50,0,0,50,845.01871,1157.513775)">
                    <path d="M0.342,0.018C0.28,0.018 0.228,0.008 0.185,-0.012C0.142,-0.032 0.109,-0.06 0.086,-0.096C0.063,-0.131 0.052,-0.171 0.052,-0.216L0.16,-0.216C0.16,-0.195 0.166,-0.174 0.177,-0.153C0.189,-0.132 0.208,-0.114 0.234,-0.101C0.261,-0.087 0.297,-0.08 0.342,-0.08C0.384,-0.08 0.418,-0.086 0.445,-0.098C0.471,-0.11 0.491,-0.126 0.504,-0.146C0.517,-0.166 0.523,-0.188 0.523,-0.211C0.523,-0.24 0.511,-0.264 0.486,-0.283C0.461,-0.302 0.424,-0.313 0.375,-0.318L0.298,-0.324C0.232,-0.33 0.179,-0.35 0.14,-0.386C0.101,-0.421 0.081,-0.468 0.081,-0.526C0.081,-0.571 0.092,-0.61 0.114,-0.643C0.135,-0.677 0.166,-0.703 0.205,-0.722C0.243,-0.741 0.289,-0.75 0.341,-0.75C0.392,-0.75 0.438,-0.741 0.477,-0.722C0.516,-0.703 0.546,-0.677 0.568,-0.643C0.59,-0.609 0.601,-0.568 0.601,-0.521L0.492,-0.521C0.492,-0.544 0.487,-0.565 0.476,-0.585C0.466,-0.604 0.449,-0.621 0.427,-0.633C0.405,-0.646 0.376,-0.652 0.341,-0.652C0.307,-0.652 0.278,-0.646 0.256,-0.634C0.234,-0.623 0.217,-0.607 0.206,-0.588C0.195,-0.569 0.189,-0.548 0.189,-0.526C0.189,-0.5 0.199,-0.477 0.219,-0.458C0.238,-0.438 0.268,-0.426 0.307,-0.423L0.384,-0.416C0.435,-0.412 0.479,-0.402 0.516,-0.385C0.553,-0.367 0.581,-0.344 0.601,-0.315C0.622,-0.286 0.632,-0.252 0.632,-0.211C0.632,-0.167 0.62,-0.127 0.596,-0.092C0.572,-0.057 0.538,-0.03 0.494,-0.011C0.451,0.009 0.4,0.018 0.342,0.018Z" style="fill:rgb(124,195,74);fill-rule:nonzero;"/>
                </g>
                <g transform="matrix(50,0,0,50,914.93121,1157.513775)">
                    <rect x="0.104" y="-0.73" width="0.109" height="0.73" style="fill:rgb(124,195,74);fill-rule:nonzero;"/>
                </g>
                <g transform="matrix(50,0,0,50,966.43121,1157.513775)">
                    <path d="M0.422,0.018C0.355,0.018 0.299,0.007 0.252,-0.017C0.205,-0.04 0.167,-0.07 0.138,-0.108C0.109,-0.145 0.088,-0.186 0.074,-0.229C0.06,-0.273 0.054,-0.315 0.054,-0.356L0.054,-0.378C0.054,-0.422 0.061,-0.466 0.074,-0.51C0.088,-0.554 0.11,-0.595 0.139,-0.631C0.168,-0.666 0.205,-0.695 0.251,-0.717C0.297,-0.739 0.352,-0.75 0.416,-0.75C0.482,-0.75 0.538,-0.739 0.585,-0.716C0.633,-0.693 0.67,-0.661 0.698,-0.62C0.726,-0.578 0.743,-0.53 0.749,-0.474L0.638,-0.474C0.633,-0.513 0.62,-0.546 0.599,-0.572C0.579,-0.598 0.553,-0.617 0.521,-0.63C0.49,-0.643 0.455,-0.65 0.416,-0.65C0.375,-0.65 0.338,-0.643 0.307,-0.628C0.275,-0.614 0.249,-0.594 0.228,-0.568C0.207,-0.542 0.191,-0.512 0.181,-0.478C0.17,-0.443 0.165,-0.406 0.165,-0.366C0.165,-0.328 0.17,-0.291 0.181,-0.257C0.191,-0.223 0.208,-0.193 0.229,-0.166C0.251,-0.14 0.278,-0.12 0.31,-0.105C0.342,-0.09 0.379,-0.082 0.422,-0.082C0.483,-0.082 0.534,-0.097 0.575,-0.128C0.616,-0.158 0.642,-0.201 0.651,-0.258L0.761,-0.258C0.755,-0.207 0.738,-0.161 0.71,-0.119C0.683,-0.078 0.645,-0.044 0.597,-0.019C0.549,0.006 0.49,0.018 0.422,0.018Z" style="fill:rgb(124,195,74);fill-rule:nonzero;"/>
                </g>
                <g transform="matrix(50,0,0,50,1041.87496,1157.513775)">
                    <path d="M0.342,0.018C0.28,0.018 0.228,0.008 0.185,-0.012C0.142,-0.032 0.109,-0.06 0.086,-0.096C0.063,-0.131 0.052,-0.171 0.052,-0.216L0.16,-0.216C0.16,-0.195 0.166,-0.174 0.177,-0.153C0.189,-0.132 0.208,-0.114 0.234,-0.101C0.261,-0.087 0.297,-0.08 0.342,-0.08C0.384,-0.08 0.418,-0.086 0.445,-0.098C0.471,-0.11 0.491,-0.126 0.504,-0.146C0.517,-0.166 0.523,-0.188 0.523,-0.211C0.523,-0.24 0.511,-0.264 0.486,-0.283C0.461,-0.302 0.424,-0.313 0.375,-0.318L0.298,-0.324C0.232,-0.33 0.179,-0.35 0.14,-0.386C0.101,-0.421 0.081,-0.468 0.081,-0.526C0.081,-0.571 0.092,-0.61 0.114,-0.643C0.135,-0.677 0.166,-0.703 0.205,-0.722C0.243,-0.741 0.289,-0.75 0.341,-0.75C0.392,-0.75 0.438,-0.741 0.477,-0.722C0.516,-0.703 0.546,-0.677 0.568,-0.643C0.59,-0.609 0.601,-0.568 0.601,-0.521L0.492,-0.521C0.492,-0.544 0.487,-0.565 0.476,-0.585C0.466,-0.604 0.449,-0.621 0.427,-0.633C0.405,-0.646 0.376,-0.652 0.341,-0.652C0.307,-0.652 0.278,-0.646 0.256,-0.634C0.234,-0.623 0.217,-0.607 0.206,-0.588C0.195,-0.569 0.189,-0.548 0.189,-0.526C0.189,-0.5 0.199,-0.477 0.219,-0.458C0.238,-0.438 0.268,-0.426 0.307,-0.423L0.384,-0.416C0.435,-0.412 0.479,-0.402 0.516,-0.385C0.553,-0.367 0.581,-0.344 0.601,-0.315C0.622,-0.286 0.632,-0.252 0.632,-0.211C0.632,-0.167 0.62,-0.127 0.596,-0.092C0.572,-0.057 0.538,-0.03 0.494,-0.011C0.451,0.009 0.4,0.018 0.342,0.018Z" style="fill:rgb(124,195,74);fill-rule:nonzero;"/>
                </g>
                <g transform="matrix(50,0,0,50,1076.13746,1157.513775)">
                </g>
            </g>
        </g>
    </g>
    <defs>
        <linearGradient id="_Linear1" x1="0" y1="0" x2="1" y2="0" gradientUnits="userSpaceOnUse" gradientTransform="matrix(7743.999795,-7743.999795,-7743.999795,-7743.999795,534.002,8277.998274)"><stop offset="0" style="stop-color:rgb(43,166,127);stop-opacity:1"/><stop offset="1" style="stop-color:rgb(124,195,74);stop-opacity:1"/></linearGradient>
    </defs>
</svg>
